<svg id="Calque_1" data-name="Calque 1" xmlns="http://www.w3.org/2000/svg" viewBox="0 0 1285.2 500.24"><defs><style>.cls-1{fill:#4e5cff;}</style></defs><path class="cls-1" d="M184.87,47.85H126V0H293.66V47.85H235.4V217H184.87Z"/><path class="cls-1" d="M276.42,172.09c0-33.29,28.24-54.39,72.52-54.39H385.8v-1.19c0-13.37-9.51-22.29-27.34-22.29-15.16,0-24.67,5.65-30.32,16.65L280.88,89.76C297.82,68.06,321,53.2,358.16,53.2c48.45,0,75.79,24.08,75.79,65.69V217H386.1V195.57c-10.7,15.16-30.62,24.67-55,24.67C298.12,220.24,276.42,201.82,276.42,172.09Zm110-16.34v-3.27H355.78c-18.72,0-26.75,6.24-26.75,15.45,0,8.92,6.54,12.78,19,12.78C364.7,180.71,381.64,169.42,386.39,155.75Z"/><path class="cls-1" d="M460.7,56.47h50.23V75.2c10.11-13.67,25-22,43.1-22,35.37,0,58.25,23.48,58.25,63V217H560.86V126.32c0-18.43-8-29.13-24.37-29.13-14.56,0-25.26,10.41-25.26,31.51V217H460.7Z"/><path class="cls-1" d="M634.87,136.13c0-51.12,35.67-82.93,74.61-82.93,20.5,0,35.66,8.33,45.17,21.7V56.47h49.94V206c0,45.47-33,80.84-85.9,80.84-34.48,0-58.26-9.51-77.28-30L683,225.3c8.92,10.7,18.13,17.83,34.18,17.83,21.11,0,37.16-14.86,37.16-36v-11c-10.11,14.27-25.86,22.29-45.48,22.29C671.43,218.46,634.87,187.55,634.87,136.13Zm122.16-.3a36.26,36.26,0,1,0-36.26,36.26A36,36,0,0,0,757,135.83Z"/><path class="cls-1" d="M831.34,156.64V56.47h51.42v90.66c0,18.43,7.72,28.83,24.37,28.83,14.56,0,25-10.11,25-31.21V56.47l50.82-.29v160.5l-50.23.3V198.55c-10.11,13.67-25,21.69-42.8,21.69C853.63,220.24,831.34,196.76,831.34,156.64Z"/><path class="cls-1" d="M977.57,262.76l32.7-34.49c5.65,5.94,12.78,10.11,21.7,10.11,12.78,0,21.69-6.25,27.34-21.11l2.38-5.94-63-154.86h53.2L1087,147.42l32.7-90.95h51.71l-66.87,169.72c-17.24,44-35.37,58.55-71.93,58.55C1013.54,284.74,990.65,272.57,977.57,262.76Z"/><path class="cls-1" d="M0,388.49C0,325.48,46.37,277,111.76,277c41.61,0,72.22,17.24,92.73,43.69L161.1,351.33c-10.41-16.05-27-25.26-49-25.26-33.58,0-60.33,26.75-60.33,62.42,0,36.85,25.26,62.12,61.23,62.12,25,0,42.5-12.49,49.93-33.89H102.54V368.57H219.06v24.67c0,57.37-42.51,106.71-105.22,106.71C43.1,500,0,448.53,0,388.49Z"/><path class="cls-1" d="M239.56,416.72c0-46.07,36-83.52,84.42-83.52,49,0,83.52,35.37,83.52,82.63v17.54H288c5.35,16.05,18.73,25,37.16,25,15.45,0,26.45-6.25,33-16.95l40.42,23.48c-16.35,22-38.34,35.08-74.31,35.08C272,500,239.56,463.39,239.56,416.72Zm49.94-20.21h68.66c-5.35-14.26-17.54-21.7-33.89-21.7C308.22,374.81,295.74,383.14,289.5,396.51Z"/><path class="cls-1" d="M429.79,336.47h49.34v22.59c8.32-18.43,24.37-25.86,45.18-25.86a62.49,62.49,0,0,1,27,6.25l-17.24,49.93c-4.75-3.57-13.37-6.54-22.58-6.54-19.62,0-32.1,9.81-32.1,35.37V497H429.79Z"/><path class="cls-1" d="M551.65,452.09c0-33.29,28.24-54.39,72.52-54.39H661v-1.19c0-13.37-9.51-22.29-27.34-22.29-15.16,0-24.67,5.65-30.32,16.65l-47.26-21.11c16.94-21.7,40.12-36.56,77.28-36.56,48.44,0,75.79,24.08,75.79,65.69V497H661.33V475.57c-10.7,15.16-30.62,24.67-55,24.67C573.35,500.24,551.65,481.82,551.65,452.09Zm110-16.34v-3.27H631c-18.73,0-26.75,6.24-26.75,15.45,0,8.92,6.54,12.78,19,12.78C639.93,460.71,656.87,449.42,661.62,435.75Z"/><path class="cls-1" d="M735.93,336.47h49.34v22.59c8.32-18.43,24.37-25.86,45.18-25.86a62.49,62.49,0,0,1,27,6.25l-17.24,49.93c-4.75-3.57-13.37-6.54-22.58-6.54-19.62,0-32.1,9.81-32.1,35.37V497H735.93Z"/><path class="cls-1" d="M858.39,416.72c0-51.71,35.66-83.52,74.6-83.52,20.21,0,35.07,8,44.58,21.11V262.76h49.34V497h-49V477.36c-10.11,14.56-25.86,22.88-45.48,22.88C894.94,500.24,858.39,468.74,858.39,416.72Zm122.15-.29a36.26,36.26,0,1,0-36.26,36.26A36.21,36.21,0,0,0,980.54,416.43Z"/><path class="cls-1" d="M1094.15,267.13a73,73,0,0,1-12.08,12.59c-8.85,7.19-19.24,11.69-32,13.72,0,.27,0,.55,0,.83,0,17.24,11.89,29.72,29.73,29.72s30-12.48,30-29.72C1109.84,281.77,1103.86,271.91,1094.15,267.13Zm-39.9,69.34V497h51.43V336.47Z"/><path class="cls-1" d="M1133.62,336.47h50.23V355.2c10.1-13.67,25-22,43.09-22,35.37,0,58.26,23.48,58.26,63V497h-51.42V406.32c0-18.43-8-29.13-24.37-29.13-14.57,0-25.27,10.41-25.27,31.51V497h-50.52Z"/></svg>